<svg width="34" height="34" viewBox="0 0 34 34" fill="none" xmlns="http://www.w3.org/2000/svg">
<rect x="1" y="1" width="32" height="32" rx="7" stroke="#EB5A1E"/>
<path d="M23.5849 13.2231C23.3615 12.7098 23.0393 12.2446 22.6365 11.8536C22.2333 11.4615 21.758 11.1499 21.2363 10.9357C20.6954 10.7128 20.1152 10.5986 19.5295 10.6C18.7077 10.6 17.906 10.8233 17.2092 11.245C17.0425 11.3459 16.8842 11.4567 16.7341 11.5774C16.5841 11.4567 16.4258 11.3459 16.2591 11.245C15.5623 10.8233 14.7606 10.6 13.9388 10.6C13.3471 10.6 12.7737 10.7125 12.232 10.9357C11.7086 11.1507 11.2369 11.46 10.8318 11.8536C10.4284 12.2442 10.1062 12.7094 9.88337 13.2231C9.65167 13.7573 9.53333 14.3246 9.53333 14.9084C9.53333 15.4592 9.64667 16.0331 9.8717 16.6169C10.0601 17.1048 10.3301 17.6109 10.6751 18.1219C11.2219 18.9307 11.9736 19.7742 12.907 20.6293C14.4539 22.0467 15.9857 23.0258 16.0507 23.0655L16.4458 23.3169C16.6208 23.4277 16.8458 23.4277 17.0208 23.3169L17.4159 23.0655C17.4809 23.0241 19.0111 22.0467 20.5596 20.6293C21.493 19.7742 22.2448 18.9307 22.7915 18.1219C23.1365 17.6109 23.4082 17.1048 23.5949 16.6169C23.82 16.0331 23.9333 15.4592 23.9333 14.9084C23.935 14.3246 23.8166 13.7573 23.5849 13.2231V13.2231Z" stroke="#EB5A1E" stroke-width="1.4"/>
</svg>
