<svg width="104" height="30" viewBox="0 0 104 30" fill="none" xmlns="http://www.w3.org/2000/svg">
<rect width="101" height="30" rx="15" fill="url(#paint0_linear_81_2)"/>
<g filter="url(#filter0_d_81_2)">
<path d="M13.267 20.1591V18.1591H13.8977C14.2121 18.1591 14.4659 18.1212 14.6591 18.0455C14.8523 17.9659 15.0057 17.8504 15.1193 17.6989C15.2367 17.5436 15.3352 17.3504 15.4148 17.1193L15.5568 16.7386L11.3295 8.36364H13.875L16.6136 14.0909L18.9034 8.36364H21.4148L17.4034 17.7159C17.2102 18.1477 16.9811 18.5492 16.7159 18.9205C16.4545 19.2917 16.1193 19.5909 15.7102 19.8182C15.3011 20.0455 14.7784 20.1591 14.142 20.1591H13.267ZM26.4034 20V11.2727H28.8239V14.6591H29.5057L31.8807 11.2727H34.7216L31.6364 15.6023L34.7557 20H31.8807L29.7273 16.9034H28.8239V20H26.4034ZM39.3622 20.1705C38.4796 20.1705 37.7164 19.983 37.0724 19.608C36.4323 19.2292 35.938 18.7027 35.5895 18.0284C35.241 17.3504 35.0668 16.5644 35.0668 15.6705C35.0668 14.7689 35.241 13.9811 35.5895 13.3068C35.938 12.6288 36.4323 12.1023 37.0724 11.7273C37.7164 11.3485 38.4796 11.1591 39.3622 11.1591C40.2448 11.1591 41.0062 11.3485 41.6463 11.7273C42.2902 12.1023 42.7865 12.6288 43.1349 13.3068C43.4834 13.9811 43.6577 14.7689 43.6577 15.6705C43.6577 16.5644 43.4834 17.3504 43.1349 18.0284C42.7865 18.7027 42.2902 19.2292 41.6463 19.608C41.0062 19.983 40.2448 20.1705 39.3622 20.1705ZM39.3736 18.2955C39.7751 18.2955 40.1103 18.1818 40.3793 17.9545C40.6482 17.7235 40.8509 17.4091 40.9872 17.0114C41.1274 16.6136 41.1974 16.161 41.1974 15.6534C41.1974 15.1458 41.1274 14.6932 40.9872 14.2955C40.8509 13.8977 40.6482 13.5833 40.3793 13.3523C40.1103 13.1212 39.7751 13.0057 39.3736 13.0057C38.9683 13.0057 38.6274 13.1212 38.3509 13.3523C38.0781 13.5833 37.8717 13.8977 37.7315 14.2955C37.5952 14.6932 37.527 15.1458 37.527 15.6534C37.527 16.161 37.5952 16.6136 37.7315 17.0114C37.8717 17.4091 38.0781 17.7235 38.3509 17.9545C38.6274 18.1818 38.9683 18.2955 39.3736 18.2955ZM45.2315 11.2727H47.544V18.0795H50.0043V11.2727H52.3168V18.0795H54.777V11.2727H57.0895V20H45.2315V11.2727ZM61.2784 16.8068L64.4205 11.2727H66.8068V20H64.5V14.4489L61.3693 20H58.9659V11.2727H61.2784V16.8068ZM68.7472 20V11.2727H71.1676V14.6591H71.8494L74.2244 11.2727H77.0653L73.9801 15.6023L77.0994 20H74.2244L72.071 16.9034H71.1676V20H68.7472ZM79.7571 23.2727C79.4503 23.2727 79.1624 23.2481 78.8935 23.1989C78.6283 23.1534 78.4086 23.0947 78.2344 23.0227L78.7798 21.2159C79.0639 21.303 79.3196 21.3504 79.5469 21.358C79.7779 21.3655 79.9768 21.3125 80.1435 21.1989C80.3139 21.0852 80.4522 20.892 80.5582 20.6193L80.7003 20.25L77.5696 11.2727H80.1151L81.9219 17.6818H82.0128L83.8366 11.2727H86.3991L83.0071 20.9432C82.8442 21.4129 82.6226 21.822 82.3423 22.1705C82.0658 22.5227 81.7154 22.7936 81.2912 22.983C80.867 23.1761 80.3556 23.2727 79.7571 23.2727Z" fill="white"/>
</g>
<defs>
<filter id="filter0_d_81_2" x="1.32954" y="2.36365" width="95.0696" height="34.9091" filterUnits="userSpaceOnUse" color-interpolation-filters="sRGB">
<feFlood flood-opacity="0" result="BackgroundImageFix"/>
<feColorMatrix in="SourceAlpha" type="matrix" values="0 0 0 0 0 0 0 0 0 0 0 0 0 0 0 0 0 0 127 0" result="hardAlpha"/>
<feOffset dy="4"/>
<feGaussianBlur stdDeviation="5"/>
<feComposite in2="hardAlpha" operator="out"/>
<feColorMatrix type="matrix" values="0 0 0 0 0 0 0 0 0 0 0 0 0 0 0 0 0 0 0.25 0"/>
<feBlend mode="normal" in2="BackgroundImageFix" result="effect1_dropShadow_81_2"/>
<feBlend mode="normal" in="SourceGraphic" in2="effect1_dropShadow_81_2" result="shape"/>
</filter>
<linearGradient id="paint0_linear_81_2" x1="50.5" y1="0" x2="50.5" y2="30" gradientUnits="userSpaceOnUse">
<stop stop-color="#EB5A1E"/>
<stop offset="1" stop-color="#DAAA97"/>
</linearGradient>
</defs>
</svg>
