<svg width="109" height="38" viewBox="0 0 109 38" fill="none" xmlns="http://www.w3.org/2000/svg">
<g filter="url(#filter0_d_10_297)">
<rect x="4.5" y="0.5" width="100" height="29" rx="14.5" fill="#F1EAE5" fill-opacity="0.58" stroke="#EB5A1E"/>
<path d="M40.0511 20.032L36.3125 15.0718H35.4716V20.032H33.0114V8.39562H35.4716V13.0433H35.9659L39.8295 8.39562H42.892L38.3523 13.7933L43.1023 20.032H40.0511ZM45.1477 23.3047C44.8409 23.3047 44.553 23.2801 44.2841 23.2308C44.0189 23.1854 43.7992 23.1267 43.625 23.0547L44.1705 21.2479C44.4545 21.335 44.7102 21.3824 44.9375 21.3899C45.1686 21.3975 45.3674 21.3445 45.5341 21.2308C45.7045 21.1172 45.8428 20.924 45.9489 20.6513L46.0909 20.282L42.9602 11.3047H45.5057L47.3125 17.7138H47.4034L49.2273 11.3047H51.7898L48.3977 20.9752C48.2348 21.4449 48.0133 21.854 47.733 22.2024C47.4564 22.5547 47.1061 22.8255 46.6818 23.0149C46.2576 23.2081 45.7462 23.3047 45.1477 23.3047ZM53.0284 20.032V11.3047H60.6591V20.032H58.3466V13.2081H55.3125V20.032H53.0284ZM64.9034 16.8388L68.0455 11.3047H70.4318V20.032H68.125V14.4808L64.9943 20.032H62.5909V11.3047H64.9034V16.8388ZM71.4957 13.2081V11.3047H79.4048V13.2081H76.5923V20.032H74.2855V13.2081H71.4957ZM83.1847 16.8388L86.3267 11.3047H88.7131V20.032H86.4062V14.4808L83.2756 20.032H80.8722V11.3047H83.1847V16.8388Z" fill="#EB5A1E"/>
<path d="M24.8052 14.1017H22.111V11.4075C22.111 10.9115 21.7089 10.5094 21.2129 10.5094C20.717 10.5094 20.3149 10.9115 20.3149 11.4075V14.1017H17.6207C17.1247 14.1017 16.7226 14.5038 16.7226 14.9997C16.7226 15.4957 17.1247 15.8978 17.6207 15.8978H20.3149V18.592C20.3149 19.0879 20.717 19.49 21.2129 19.49C21.7089 19.49 22.111 19.0879 22.111 18.592V15.8978H24.8052C25.3011 15.8978 25.7032 15.4957 25.7032 14.9997C25.7032 14.5038 25.3011 14.1017 24.8052 14.1017Z" fill="#EB5A1E"/>
</g>
<defs>
<filter id="filter0_d_10_297" x="0" y="0" width="109" height="38" filterUnits="userSpaceOnUse" color-interpolation-filters="sRGB">
<feFlood flood-opacity="0" result="BackgroundImageFix"/>
<feColorMatrix in="SourceAlpha" type="matrix" values="0 0 0 0 0 0 0 0 0 0 0 0 0 0 0 0 0 0 127 0" result="hardAlpha"/>
<feOffset dy="4"/>
<feGaussianBlur stdDeviation="2"/>
<feComposite in2="hardAlpha" operator="out"/>
<feColorMatrix type="matrix" values="0 0 0 0 0 0 0 0 0 0 0 0 0 0 0 0 0 0 0.25 0"/>
<feBlend mode="normal" in2="BackgroundImageFix" result="effect1_dropShadow_10_297"/>
<feBlend mode="normal" in="SourceGraphic" in2="effect1_dropShadow_10_297" result="shape"/>
</filter>
</defs>
</svg>
