<svg width="121" height="50" viewBox="0 0 121 50" fill="none" xmlns="http://www.w3.org/2000/svg">
<g filter="url(#filter0_d_81_2)">
<rect x="10" y="6" width="101" height="30" rx="15" fill="url(#paint0_linear_81_2)"/>
<g filter="url(#filter1_d_81_2)">
<path d="M23.267 26.1591V24.1591H23.8977C24.2121 24.1591 24.4659 24.1212 24.6591 24.0455C24.8523 23.9659 25.0057 23.8504 25.1193 23.6989C25.2367 23.5436 25.3352 23.3504 25.4148 23.1193L25.5568 22.7386L21.3295 14.3636H23.875L26.6136 20.0909L28.9034 14.3636H31.4148L27.4034 23.7159C27.2102 24.1477 26.9811 24.5492 26.7159 24.9205C26.4545 25.2917 26.1193 25.5909 25.7102 25.8182C25.3011 26.0455 24.7784 26.1591 24.142 26.1591H23.267ZM36.4034 26V17.2727H38.8239V20.6591H39.5057L41.8807 17.2727H44.7216L41.6364 21.6023L44.7557 26H41.8807L39.7273 22.9034H38.8239V26H36.4034ZM49.3622 26.1705C48.4796 26.1705 47.7164 25.983 47.0724 25.608C46.4323 25.2292 45.938 24.7027 45.5895 24.0284C45.241 23.3504 45.0668 22.5644 45.0668 21.6705C45.0668 20.7689 45.241 19.9811 45.5895 19.3068C45.938 18.6288 46.4323 18.1023 47.0724 17.7273C47.7164 17.3485 48.4796 17.1591 49.3622 17.1591C50.2448 17.1591 51.0062 17.3485 51.6463 17.7273C52.2902 18.1023 52.7865 18.6288 53.1349 19.3068C53.4834 19.9811 53.6577 20.7689 53.6577 21.6705C53.6577 22.5644 53.4834 23.3504 53.1349 24.0284C52.7865 24.7027 52.2902 25.2292 51.6463 25.608C51.0062 25.983 50.2448 26.1705 49.3622 26.1705ZM49.3736 24.2955C49.7751 24.2955 50.1103 24.1818 50.3793 23.9545C50.6482 23.7235 50.8509 23.4091 50.9872 23.0114C51.1274 22.6136 51.1974 22.161 51.1974 21.6534C51.1974 21.1458 51.1274 20.6932 50.9872 20.2955C50.8509 19.8977 50.6482 19.5833 50.3793 19.3523C50.1103 19.1212 49.7751 19.0057 49.3736 19.0057C48.9683 19.0057 48.6274 19.1212 48.3509 19.3523C48.0781 19.5833 47.8717 19.8977 47.7315 20.2955C47.5952 20.6932 47.527 21.1458 47.527 21.6534C47.527 22.161 47.5952 22.6136 47.7315 23.0114C47.8717 23.4091 48.0781 23.7235 48.3509 23.9545C48.6274 24.1818 48.9683 24.2955 49.3736 24.2955ZM55.2315 17.2727H57.544V24.0795H60.0043V17.2727H62.3168V24.0795H64.777V17.2727H67.0895V26H55.2315V17.2727ZM71.2784 22.8068L74.4205 17.2727H76.8068V26H74.5V20.4489L71.3693 26H68.9659V17.2727H71.2784V22.8068ZM78.7472 26V17.2727H81.1676V20.6591H81.8494L84.2244 17.2727H87.0653L83.9801 21.6023L87.0994 26H84.2244L82.071 22.9034H81.1676V26H78.7472ZM89.7571 29.2727C89.4503 29.2727 89.1624 29.2481 88.8935 29.1989C88.6283 29.1534 88.4086 29.0947 88.2344 29.0227L88.7798 27.2159C89.0639 27.303 89.3196 27.3504 89.5469 27.358C89.7779 27.3655 89.9768 27.3125 90.1435 27.1989C90.3139 27.0852 90.4522 26.892 90.5582 26.6193L90.7003 26.25L87.5696 17.2727H90.1151L91.9219 23.6818H92.0128L93.8366 17.2727H96.3991L93.0071 26.9432C92.8442 27.4129 92.6226 27.822 92.3423 28.1705C92.0658 28.5227 91.7154 28.7936 91.2912 28.983C90.867 29.1761 90.3556 29.2727 89.7571 29.2727Z" fill="white"/>
</g>
</g>
<defs>
<filter id="filter0_d_81_2" x="0" y="0" width="121" height="50" filterUnits="userSpaceOnUse" color-interpolation-filters="sRGB">
<feFlood flood-opacity="0" result="BackgroundImageFix"/>
<feColorMatrix in="SourceAlpha" type="matrix" values="0 0 0 0 0 0 0 0 0 0 0 0 0 0 0 0 0 0 127 0" result="hardAlpha"/>
<feOffset dy="4"/>
<feGaussianBlur stdDeviation="5"/>
<feComposite in2="hardAlpha" operator="out"/>
<feColorMatrix type="matrix" values="0 0 0 0 0 0 0 0 0 0 0 0 0 0 0 0 0 0 0.25 0"/>
<feBlend mode="normal" in2="BackgroundImageFix" result="effect1_dropShadow_81_2"/>
<feBlend mode="normal" in="SourceGraphic" in2="effect1_dropShadow_81_2" result="shape"/>
</filter>
<filter id="filter1_d_81_2" x="11.3295" y="8.36365" width="95.0696" height="34.9091" filterUnits="userSpaceOnUse" color-interpolation-filters="sRGB">
<feFlood flood-opacity="0" result="BackgroundImageFix"/>
<feColorMatrix in="SourceAlpha" type="matrix" values="0 0 0 0 0 0 0 0 0 0 0 0 0 0 0 0 0 0 127 0" result="hardAlpha"/>
<feOffset dy="4"/>
<feGaussianBlur stdDeviation="5"/>
<feComposite in2="hardAlpha" operator="out"/>
<feColorMatrix type="matrix" values="0 0 0 0 0 0 0 0 0 0 0 0 0 0 0 0 0 0 0.25 0"/>
<feBlend mode="normal" in2="BackgroundImageFix" result="effect1_dropShadow_81_2"/>
<feBlend mode="normal" in="SourceGraphic" in2="effect1_dropShadow_81_2" result="shape"/>
</filter>
<linearGradient id="paint0_linear_81_2" x1="60.5" y1="6" x2="60.5" y2="36" gradientUnits="userSpaceOnUse">
<stop stop-color="#EB5A1E"/>
<stop offset="1" stop-color="#DAAA97"/>
</linearGradient>
</defs>
</svg>
