<svg width="101" height="30" viewBox="0 0 101 30" fill="none" xmlns="http://www.w3.org/2000/svg">
<rect x="0.5" y="0.5" width="100" height="29" rx="14.5" fill="#F1EAE5" fill-opacity="0.58" stroke="#EB5A1E"/>
<path d="M36.0511 20.032L32.3125 15.0718H31.4716V20.032H29.0114V8.39562H31.4716V13.0433H31.9659L35.8295 8.39562H38.892L34.3523 13.7933L39.1023 20.032H36.0511ZM41.1477 23.3047C40.8409 23.3047 40.553 23.2801 40.2841 23.2308C40.0189 23.1854 39.7992 23.1267 39.625 23.0547L40.1705 21.2479C40.4545 21.335 40.7102 21.3824 40.9375 21.3899C41.1686 21.3975 41.3674 21.3445 41.5341 21.2308C41.7045 21.1172 41.8428 20.924 41.9489 20.6513L42.0909 20.282L38.9602 11.3047H41.5057L43.3125 17.7138H43.4034L45.2273 11.3047H47.7898L44.3977 20.9752C44.2348 21.4449 44.0133 21.854 43.733 22.2024C43.4564 22.5547 43.1061 22.8255 42.6818 23.0149C42.2576 23.2081 41.7462 23.3047 41.1477 23.3047ZM49.0284 20.032V11.3047H56.6591V20.032H54.3466V13.2081H51.3125V20.032H49.0284ZM60.9034 16.8388L64.0455 11.3047H66.4318V20.032H64.125V14.4808L60.9943 20.032H58.5909V11.3047H60.9034V16.8388ZM67.4957 13.2081V11.3047H75.4048V13.2081H72.5923V20.032H70.2855V13.2081H67.4957ZM79.1847 16.8388L82.3267 11.3047H84.7131V20.032H82.4062V14.4808L79.2756 20.032H76.8722V11.3047H79.1847V16.8388Z" fill="#EB5A1E"/>
<path d="M20.8052 14.1017H18.111V11.4075C18.111 10.9115 17.7089 10.5094 17.2129 10.5094C16.717 10.5094 16.3149 10.9115 16.3149 11.4075V14.1017H13.6207C13.1247 14.1017 12.7226 14.5038 12.7226 14.9997C12.7226 15.4957 13.1247 15.8978 13.6207 15.8978H16.3149V18.592C16.3149 19.0879 16.717 19.49 17.2129 19.49C17.7089 19.49 18.111 19.0879 18.111 18.592V15.8978H20.8052C21.3011 15.8978 21.7032 15.4957 21.7032 14.9997C21.7032 14.5038 21.3011 14.1017 20.8052 14.1017Z" fill="#EB5A1E"/>
</svg>
